<svg width="37" height="37" viewBox="0 0 37 37" fill="none" xmlns="http://www.w3.org/2000/svg">
<path fill-rule="evenodd" clip-rule="evenodd" d="M18.3436 5.35199C14.6838 5.35199 14.2256 5.36726 12.7883 5.43284C11.3537 5.49842 10.3736 5.72659 9.5166 6.05987C8.61828 6.39764 7.80349 6.92766 7.12975 7.61398C6.44452 8.28695 5.91418 9.10116 5.57564 9.99994C5.24415 10.8569 5.01508 11.8379 4.9495 13.2726C4.88482 14.709 4.86865 15.1662 4.86865 18.8269C4.86865 22.4876 4.88392 22.9449 4.9495 24.3822C5.01508 25.8168 5.24326 26.7969 5.57654 27.6539C5.91431 28.5522 6.44432 29.367 7.13064 30.0408C7.80363 30.726 8.61784 31.2563 9.5166 31.5949C10.3736 31.9272 11.3537 32.1554 12.7883 32.221C14.2256 32.2866 14.6838 32.3019 18.3436 32.3019C22.0034 32.3019 22.4615 32.2866 23.8988 32.221C25.3335 32.1554 26.3136 31.9272 27.1706 31.594C28.0689 31.2562 28.8837 30.7262 29.5574 30.0399C30.2426 29.3669 30.773 28.5527 31.1115 27.6539C31.4439 26.7969 31.6721 25.8168 31.7377 24.3822C31.8032 22.9449 31.8185 22.4867 31.8185 18.8269C31.8185 15.1671 31.8032 14.709 31.7377 13.2717C31.6721 11.837 31.4439 10.8569 31.1106 9.99994C30.7723 9.10077 30.242 8.28622 29.5565 7.61308C28.8836 6.92786 28.0693 6.39752 27.1706 6.05897C26.3136 5.72749 25.3326 5.49842 23.8979 5.43284C22.4615 5.36816 22.0043 5.35199 18.3436 5.35199ZM18.3436 7.78017C21.9414 7.78017 22.3681 7.79365 23.7893 7.85833C25.1026 7.91851 25.8159 8.13681 26.2911 8.32276C26.9199 8.56621 27.3691 8.85907 27.8407 9.32979C28.3123 9.80141 28.6043 10.2506 28.8477 10.8794C29.0328 11.3546 29.252 12.0679 29.3122 13.3813C29.3769 14.8024 29.3903 15.2291 29.3903 18.8269C29.3903 22.4247 29.3769 22.8514 29.3122 24.2726C29.252 25.5859 29.0337 26.2992 28.8477 26.7744C28.6321 27.3597 28.288 27.8893 27.8407 28.3241C27.406 28.7714 26.8765 29.1155 26.2911 29.3311C25.8159 29.5161 25.1026 29.7353 23.7893 29.7955C22.3681 29.8602 21.9423 29.8737 18.3436 29.8737C14.7449 29.8737 14.3191 29.8602 12.8979 29.7955C11.5846 29.7353 10.8713 29.517 10.3961 29.3311C9.81077 29.1154 9.28125 28.7713 8.84645 28.3241C8.39924 27.8892 8.05514 27.3597 7.83943 26.7744C7.65437 26.2992 7.43518 25.5859 7.37499 24.2726C7.31031 22.8514 7.29683 22.4247 7.29683 18.8269C7.29683 15.2291 7.31031 14.8024 7.37499 13.3813C7.43518 12.0679 7.65347 11.3546 7.83943 10.8794C8.08287 10.2506 8.37573 9.80141 8.84645 9.32979C9.28119 8.88246 9.81073 8.53834 10.3961 8.32276C10.8713 8.13771 11.5846 7.91851 12.8979 7.85833C14.3191 7.79365 14.7458 7.78017 18.3436 7.78017Z" fill="#EBEBEB"/>
<path fill-rule="evenodd" clip-rule="evenodd" d="M18.3436 23.323C17.7532 23.323 17.1685 23.2067 16.623 22.9808C16.0775 22.7548 15.5819 22.4237 15.1643 22.0062C14.7468 21.5886 14.4157 21.093 14.1897 20.5475C13.9638 20.002 13.8475 19.4173 13.8475 18.8269C13.8475 18.2365 13.9638 17.6518 14.1897 17.1063C14.4157 16.5608 14.7468 16.0652 15.1643 15.6477C15.5819 15.2301 16.0775 14.899 16.623 14.673C17.1685 14.4471 17.7532 14.3308 18.3436 14.3308C19.536 14.3308 20.6797 14.8045 21.5228 15.6477C22.366 16.4908 22.8397 17.6345 22.8397 18.8269C22.8397 20.0194 22.366 21.163 21.5228 22.0062C20.6797 22.8493 19.536 23.323 18.3436 23.323ZM18.3436 11.9008C16.5067 11.9008 14.745 12.6305 13.4461 13.9294C12.1472 15.2283 11.4175 16.99 11.4175 18.8269C11.4175 20.6638 12.1472 22.4255 13.4461 23.7244C14.745 25.0233 16.5067 25.753 18.3436 25.753C20.1805 25.753 21.9422 25.0233 23.2411 23.7244C24.54 22.4255 25.2697 20.6638 25.2697 18.8269C25.2697 16.99 24.54 15.2283 23.2411 13.9294C21.9422 12.6305 20.1805 11.9008 18.3436 11.9008ZM27.2847 11.775C27.2847 12.2092 27.1122 12.6257 26.8051 12.9327C26.4981 13.2397 26.0817 13.4122 25.6475 13.4122C25.2132 13.4122 24.7968 13.2397 24.4898 12.9327C24.1827 12.6257 24.0102 12.2092 24.0102 11.775C24.0102 11.3408 24.1827 10.9244 24.4898 10.6173C24.7968 10.3103 25.2132 10.1378 25.6475 10.1378C26.0817 10.1378 26.4981 10.3103 26.8051 10.6173C27.1122 10.9244 27.2847 11.3408 27.2847 11.775Z" fill="#EBEBEB"/>
</svg>
