<svg width="37" height="37" viewBox="0 0 37 37" fill="none" xmlns="http://www.w3.org/2000/svg">
<path fillRule="evenodd" clipRule="evenodd" d="M33.3156 18.8547C33.3156 27.1236 26.6124 33.8269 18.3435 33.8269C10.0746 33.8269 3.37134 27.1236 3.37134 18.8547C3.37134 10.5858 10.0746 3.88257 18.3435 3.88257C26.6124 3.88257 33.3156 10.5858 33.3156 18.8547ZM18.88 14.9357C17.4237 15.5414 14.5133 16.7951 10.1486 18.6967C9.43981 18.9785 9.06853 19.2543 9.03473 19.5239C8.97761 19.9795 9.54821 20.1589 10.3252 20.4033C10.4309 20.4365 10.5404 20.4709 10.6527 20.5074C11.4171 20.7559 12.4455 21.0466 12.98 21.0582C13.465 21.0687 14.0062 20.8687 14.6037 20.4584C18.6818 17.7056 20.7869 16.3142 20.9191 16.2842C21.0123 16.2631 21.1415 16.2365 21.229 16.3143C21.3166 16.3921 21.308 16.5394 21.2987 16.579C21.2422 16.8199 19.0024 18.9023 17.8433 19.9799C17.4819 20.3158 17.2256 20.5541 17.1732 20.6085C17.0559 20.7304 16.9362 20.8458 16.8213 20.9566C16.1111 21.6412 15.5785 22.1546 16.8507 22.993C17.4621 23.3959 17.9514 23.7291 18.4394 24.0615C18.9725 24.4245 19.5041 24.7865 20.192 25.2374C20.3673 25.3523 20.5347 25.4717 20.6977 25.5879C21.318 26.0301 21.8753 26.4274 22.5638 26.3641C22.9639 26.3273 23.3772 25.9511 23.587 24.8291C24.083 22.1775 25.058 16.4323 25.2833 14.0649C25.3031 13.8574 25.2782 13.592 25.2583 13.4755C25.2383 13.3589 25.1967 13.1929 25.0452 13.07C24.8658 12.9244 24.5889 12.8937 24.465 12.8959C23.9019 12.9058 23.0379 13.2063 18.88 14.9357Z" fill="#EBEBEB"/>
</svg>
