<svg width="37" height="37" viewBox="0 0 37 37" fill="none" xmlns="http://www.w3.org/2000/svg">
<path d="M18.4001 5.3006C11.0037 5.3006 4.98428 11.0983 4.98167 18.2235C4.97993 20.5021 5.59891 22.7259 6.77253 24.6845L4.86865 31.3811L11.9825 29.5842C13.9614 30.6193 16.1617 31.1592 18.3949 31.1577H18.4001C25.7965 31.1577 31.8159 25.3591 31.8185 18.2339C31.8203 14.7826 30.4258 11.5338 27.8917 9.09184C25.3584 6.64896 21.9896 5.30147 18.4001 5.3006ZM18.4001 28.9747H18.3957C16.3945 28.9747 14.4315 28.4566 12.7189 27.4777L12.3103 27.2447L8.09046 28.3106L9.21714 24.3463L8.95199 23.9403C7.83827 22.2418 7.2454 20.2546 7.24633 18.2235C7.24893 12.3006 12.2529 7.48354 18.4044 7.48354C21.3828 7.48441 24.183 8.60326 26.2894 10.6332C28.3959 12.6631 29.5547 15.3625 29.553 18.2331C29.5504 24.1559 24.5473 28.9747 18.3992 28.9747H18.4001ZM24.5177 20.9289C24.1821 20.7681 22.5338 19.9865 22.2261 19.8779C21.9192 19.7709 21.6958 19.7153 21.4724 20.0387C21.2498 20.3621 20.6065 21.0897 20.4118 21.3045C20.2153 21.5201 20.0197 21.5462 19.6841 21.3853C19.3486 21.2236 18.2679 20.8828 16.9883 19.7822C15.9911 18.9268 15.3182 17.8697 15.1226 17.5454C14.927 17.2229 15.1018 17.0481 15.2696 16.8873C15.42 16.7439 15.6051 16.5109 15.772 16.3222C15.939 16.1336 15.9946 15.9988 16.1076 15.7832C16.2189 15.5685 16.1633 15.379 16.0789 15.2181C15.9946 15.0556 15.3252 13.4664 15.0444 12.8205C14.7732 12.1911 14.4967 12.2754 14.2907 12.265C14.0951 12.2563 13.8725 12.2537 13.6474 12.2537C13.4257 12.2537 13.0614 12.3345 12.7537 12.6579C12.4468 12.9813 11.58 13.762 11.58 15.3512C11.58 16.9412 12.7815 18.4765 12.9493 18.6921C13.117 18.9068 15.3139 22.1695 18.6774 23.5691C19.4772 23.9004 20.1014 24.0994 20.5891 24.249C21.3924 24.495 22.1235 24.4593 22.7008 24.3768C23.3441 24.2837 24.6846 23.5961 24.9628 22.8424C25.2427 22.0886 25.2427 21.4418 25.1593 21.3071C25.0776 21.1723 24.8533 21.0915 24.5177 20.9289Z" fill="#EBEBEB"/>
</svg>
